<?xml version="1.0" encoding="UTF-8"?>
<!DOCTYPE svg PUBLIC "-//W3C//DTD SVG 1.1//EN" "http://www.w3.org/Graphics/SVG/1.1/DTD/svg11.dtd">
<!-- Creator: CorelDRAW X7 -->
<svg xmlns="http://www.w3.org/2000/svg" xml:space="preserve" width="2000px" height="2000px" version="1.1" style="shape-rendering:geometricPrecision; text-rendering:geometricPrecision; image-rendering:optimizeQuality; fill-rule:evenodd; clip-rule:evenodd"
viewBox="0 0 2000 2000"
 xmlns:xlink="http://www.w3.org/1999/xlink">
 <defs>
  <style type="text/css">
   <![CDATA[
    .fil4 {fill:black}
    .fil0 {fill:#206582}
    .fil3 {fill:#B2B6B6}
    .fil1 {fill:white}
    .fil5 {fill:#206582;fill-rule:nonzero}
    .fil2 {fill:#206582;fill-rule:nonzero}
    .fil6 {fill:white;fill-rule:nonzero}
   ]]>
  </style>
 </defs>
 <g id="Capa_x0020_1">
  <metadata id="CorelCorpID_0Corel-Layer"/>
  <circle class="fil0" cx="1041" cy="999" r="749"/>
  <rect class="fil1" x="1253" y="484" width="154" height="817"/>
  <g>
   <path class="fil2" d="M1448 1347l-177 0 0 -93 177 0 43 29 -43 64zm0 -93c26,0 47,21 47,46 0,26 -21,47 -47,47l0 -93zm-174 -500l217 529 -86 35 -217 -529 5 -44 81 9zm-86 35c-10,-24 2,-51 25,-60 24,-10 51,1 61,25l-86 35zm40 66l-76 -53 0 0 2 -2 1 -2 1 -2 1 -2 2 -1 1 -2 1 -2 2 -2 1 -2 1 -2 2 -1 1 -2 1 -2 2 -2 1 -2 1 -1 1 -2 2 -2 1 -2 1 -1 2 -2 1 -2 1 -2 1 -1 2 -2 1 -2 1 -2 1 -1 2 -2 1 -2 1 -2 1 -1 76 53 -1 2 -2 2 -1 2 -1 2 -2 2 -1 1 -1 2 -2 2 -1 2 -1 2 -1 1 -2 2 -1 2 -1 2 -2 1 -1 2 -1 2 -1 2 -2 1 -1 2 -1 2 -1 2 -2 1 -1 2 -1 2 -1 2 -2 1 -1 2 -1 2 -1 1 -2 2 -1 2 0 0zm0 0c-14,21 -43,26 -64,11 -21,-14 -26,-43 -12,-64l76 53zm-41 58l-75 -55 0 0 1 -1 2 -2 1 -2 1 -2 1 -1 2 -2 1 -2 1 -2 1 -1 2 -2 1 -2 1 -2 1 -1 2 -2 1 -2 1 -2 1 -1 2 -2 1 -2 1 -2 1 -1 2 -2 1 -2 1 -2 1 -2 2 -1 1 -2 1 -2 1 -2 2 -2 1 -1 1 -2 76 53 -1 2 -1 2 -2 1 -1 2 -1 2 -1 2 -2 2 -1 1 -1 2 -1 2 -2 2 -1 2 -1 2 -2 1 -1 2 -1 2 -1 2 -2 2 -1 1 -1 2 -2 2 -1 2 -1 2 -1 1 -2 2 -1 2 -1 2 -2 2 -1 2 -1 1 -2 2 -1 2 0 0zm0 0c-15,21 -44,25 -65,10 -20,-15 -25,-44 -10,-65l75 55zm-20 28l-76 -53 0 0 1 -1 1 -1 0 -1 1 -1 0 -1 1 -1 1 -1 0 -1 1 -1 1 -1 0 -1 1 0 1 -1 0 -1 1 -1 1 -1 0 -1 1 -1 0 -1 1 -1 1 -1 0 0 1 -1 1 -1 0 -1 1 -1 1 -1 0 -1 1 -1 1 -1 0 -1 1 -1 75 55 -1 1 0 1 -1 1 -1 1 0 0 -1 1 0 1 -1 1 -1 1 0 1 -1 1 -1 0 0 1 -1 1 0 1 -1 1 -1 1 0 1 -1 0 0 1 -1 1 -1 1 0 1 -1 1 0 1 -1 0 -1 1 0 1 -1 1 0 1 -1 1 -1 1 0 0zm0 0c-14,21 -43,26 -64,11 -21,-15 -26,-43 -12,-64l76 53zm10 -10l-86 34 0 0 -1 -2 -1 -2 -1 -2 0 -2 -1 -2 -1 -2 0 -1 -1 -2 -1 -1 0 -2 -1 -2 -1 -1 0 -2 -1 -3 -1 -2 -1 -3 0 -4 -1 -4 0 -5 1 -5 1 -5 1 -5 1 -4 2 -3 2 -3 1 -2 1 -2 1 -1 1 -1 0 -1 1 -1 0 0 76 53 -1 1 0 1 -1 0 0 1 0 0 0 -1 1 -1 1 -1 1 -3 1 -3 1 -3 1 -4 0 -4 0 -4 0 -3 -1 -2 0 -2 0 -1 -1 0 0 0 1 0 0 0 0 1 1 1 0 2 1 1 1 2 0 2 1 2 1 3 1 2 1 3 0 0zm0 0c10,24 -2,51 -26,60 -24,10 -51,-2 -60,-26l86 -34zm28 71l-86 34 0 0 -1 -2 -1 -2 -1 -3 -1 -2 -1 -2 -1 -2 0 -3 -1 -2 -1 -2 -1 -2 -1 -3 -1 -2 -1 -2 -1 -2 0 -3 -1 -2 -1 -2 -1 -2 -1 -2 -1 -3 -1 -2 0 -2 -1 -2 -1 -2 -1 -3 -1 -2 -1 -2 -1 -2 0 -2 -1 -3 -1 -2 -1 -2 86 -34 1 2 1 3 1 2 1 2 1 2 1 3 1 2 0 2 1 2 1 3 1 2 1 2 1 2 1 2 0 3 1 2 1 2 1 2 1 2 1 3 0 2 1 2 1 2 1 2 1 2 1 3 1 2 0 2 1 2 1 2 1 2 1 2 0 1zm0 -1c9,24 -2,51 -26,61 -23,9 -51,-2 -60,-26l86 -35zm23 316l-109 -281 86 -34 109 282 -43 63 -43 -30zm86 -33c10,23 -2,50 -26,60 -24,9 -51,-3 -60,-27l86 -33z"/>
   <path id="1" class="fil3" d="M1271 1300l177 0 -217 -528c-13,19 -27,37 -41,56 -13,20 -27,39 -40,58 -7,9 -14,18 -21,28 -7,10 -6,6 5,34 10,24 18,47 28,71l109 281z"/>
  </g>
  <rect class="fil1" x="649" y="484" width="154" height="817"/>
  <g>
   <path class="fil2" d="M791 1347l-177 0 0 -93 177 0 45 58 -45 35zm0 -93c26,0 47,21 47,46 0,26 -21,47 -47,47l0 -93zm-16 -40l87 32 0 0 -1 2 -1 2 0 2 -1 2 -1 2 -1 2 -1 2 -1 3 -1 2 -1 3 -1 2 -1 3 -1 3 -1 2 -1 3 -1 3 -1 2 -1 3 -1 3 -1 2 -1 3 -1 2 -1 2 -1 2 0 2 -1 2 -1 2 0 1 -1 1 0 1 0 1 0 -1 -90 -24 1 -2 1 -2 0 -2 1 -2 1 -3 1 -2 1 -2 0 -2 1 -3 1 -2 1 -3 1 -2 1 -3 1 -3 2 -3 1 -2 1 -3 1 -3 1 -3 1 -2 1 -3 1 -2 1 -3 1 -2 1 -3 1 -2 1 -2 0 -2 1 -2 1 -2 0 -1 1 -1 0 0zm0 0c9,-24 36,-37 60,-28 24,9 36,36 27,60l-87 -32zm109 -281l87 33 0 0 -4 9 -3 9 -3 8 -4 9 -3 9 -4 9 -3 9 -4 8 -3 9 -3 9 -4 9 -3 9 -4 9 -3 8 -4 9 -3 9 -4 9 -3 8 -4 9 -3 9 -4 9 -3 8 -3 9 -4 9 -3 9 -4 8 -3 9 -3 9 -4 8 -3 9 -3 8 -3 9 -87 -32 3 -9 3 -9 4 -9 3 -9 3 -8 4 -9 3 -9 4 -9 3 -9 4 -8 3 -9 3 -9 4 -9 3 -9 4 -8 3 -9 4 -9 3 -9 4 -9 3 -8 4 -9 3 -9 4 -9 3 -8 4 -9 3 -9 3 -9 4 -8 3 -9 4 -9 3 -8 3 -9 0 0zm0 0c9,-24 36,-36 60,-27 24,9 36,36 27,60l-87 -33zm7 -18l87 34 0 0 -1 0 0 1 0 0 0 1 -1 1 0 0 0 1 0 0 0 1 -1 0 0 1 0 0 0 1 -1 1 0 0 0 1 0 0 0 1 -1 0 0 1 0 0 0 1 0 0 -1 1 0 0 0 1 0 0 0 1 -1 0 0 1 0 0 0 1 -87 -33 0 -1 1 0 0 -1 0 -1 0 0 1 -1 0 0 0 -1 0 0 0 -1 1 -1 0 0 0 -1 0 0 1 -1 0 0 0 -1 0 0 0 -1 1 0 0 -1 0 0 0 -1 0 0 1 -1 0 -1 0 0 0 -1 0 0 1 -1 0 0 0 -1 0 0zm0 0c9,-24 36,-36 60,-26 24,9 36,36 27,60l-87 -34zm4 28l76 -54 0 0 1 1 0 0 0 1 1 0 0 1 1 1 0 1 1 1 1 1 1 2 1 3 2 3 1 4 2 4 1 5 0 5 0 5 -1 4 0 4 -1 3 -1 2 -1 2 0 1 -1 1 0 1 0 1 0 0 -1 1 0 0 0 1 0 0 0 1 -87 -34 1 -1 0 -1 1 -2 0 -1 0 -1 1 0 0 -1 0 0 0 0 0 0 0 1 -1 2 -1 2 0 3 -1 4 0 4 1 5 0 4 1 4 2 3 1 3 1 2 1 1 0 1 0 0 0 0 0 0 0 -1 -1 -1 0 0 -1 -1 -1 -1 0 0zm0 0c-14,-21 -9,-50 12,-65 21,-15 49,-10 64,11l-76 54zm-20 -29l75 -54 0 0 1 1 1 1 0 1 1 1 1 1 0 1 1 0 1 1 0 1 1 1 0 1 1 1 1 1 0 1 1 1 1 1 0 1 1 0 1 1 0 1 1 1 1 1 0 1 1 1 1 1 0 1 1 1 1 1 0 1 1 1 0 0 1 1 -76 54 0 -1 -1 -1 -1 -1 0 -1 -1 -1 -1 -1 0 -1 -1 0 0 -1 -1 -1 -1 -1 0 -1 -1 -1 -1 -1 0 -1 -1 -1 -1 0 0 -1 -1 -1 0 -1 -1 -1 -1 -1 0 -1 -1 -1 -1 -1 0 -1 -1 -1 -1 0 0 -1 -1 -1 -1 -1 0 -1 0 0zm0 0c-15,-21 -10,-50 11,-65 21,-15 50,-10 64,11l-75 54zm-76 -107l71 -60 2 2 2 4 3 3 2 4 3 3 2 3 3 4 2 3 3 4 2 3 3 4 2 3 3 4 2 3 3 4 2 4 3 3 2 4 3 3 2 4 3 3 2 4 2 3 3 4 2 3 3 4 2 3 3 4 2 3 2 3 3 4 2 3 2 3 -75 54 -3 -3 -2 -4 -2 -3 -3 -4 -2 -3 -3 -4 -2 -3 -3 -4 -2 -3 -2 -4 -3 -3 -2 -4 -3 -3 -2 -4 -3 -3 -2 -4 -3 -3 -2 -4 -3 -3 -2 -4 -3 -3 -2 -3 -2 -4 -3 -3 -2 -4 -3 -3 -2 -3 -2 -4 -3 -3 -2 -3 -3 -4 -2 -3 2 3zm-2 -3c-15,-20 -11,-49 10,-65 21,-15 50,-10 65,10l-75 55zm70 -60l3 3 -71 60 -3 -4 69 -62 2 3zm-71 59c-16,-19 -14,-48 6,-65 19,-16 49,-14 65,6l-71 59zm78 -12l-86 -36 73 -17 0 0 1 0 0 0 0 0 0 0 0 0 0 1 1 0 0 0 0 0 0 0 0 0 0 1 0 0 0 0 1 0 0 0 0 0 0 0 0 0 0 0 0 1 0 0 0 0 0 0 1 0 0 0 0 0 0 0 0 0 0 0 0 0 -67 65 1 0 0 0 -1 0 1 0 0 0 0 0 0 0 0 0 0 0 0 0 0 1 0 -1 0 0 0 1 0 0 0 0 0 0 0 0 0 0 1 0 0 0 0 0 0 0 0 0 0 0 0 1 0 0 0 0 1 0 0 0 0 0 0 0 73 -17zm-73 17c-19,-16 -22,-45 -5,-65 16,-19 45,-22 65,-5l-60 70zm-67 78l54 -131 86 36 -55 131 0 0 -85 -36zm85 36c-10,24 -37,35 -60,25 -24,-10 -35,-37 -25,-61l85 36zm-81 197l-85 -36 0 0 2 -6 3 -6 2 -6 3 -6 2 -6 3 -6 3 -6 2 -6 3 -6 2 -6 3 -6 2 -7 3 -6 2 -6 3 -6 2 -6 3 -7 2 -6 3 -6 2 -6 3 -7 2 -6 3 -6 2 -6 3 -6 2 -7 3 -6 3 -6 2 -6 3 -6 2 -7 3 -6 85 36 -2 6 -3 6 -2 6 -3 6 -2 6 -3 6 -2 7 -3 6 -2 6 -3 6 -2 6 -3 6 -2 7 -3 6 -2 6 -3 6 -2 7 -3 6 -2 6 -3 6 -3 7 -2 6 -3 6 -2 6 -3 6 -2 7 -3 6 -2 6 -3 6 -3 6 -2 6 -3 6 0 0zm0 0c-10,24 -37,35 -61,25 -23,-10 -34,-38 -24,-61l85 36zm-26 65l-87 -34 0 0 1 -2 1 -2 1 -2 1 -2 0 -2 1 -2 1 -2 1 -3 1 -2 1 -2 1 -2 0 -2 1 -2 1 -2 1 -2 1 -2 1 -3 1 -2 0 -2 1 -2 1 -2 1 -2 1 -2 1 -2 1 -2 1 -2 0 -3 1 -2 1 -2 1 -2 1 -2 1 -2 85 36 -1 2 -1 3 0 2 -1 2 -1 2 -1 2 -1 2 -1 2 -1 2 0 2 -1 2 -1 2 -1 2 -1 2 -1 2 0 2 -1 2 -1 2 -1 2 -1 2 -1 2 0 2 -1 2 -1 2 -1 2 -1 2 0 2 -1 2 -1 2 -1 2 -1 2 0 2 0 0zm0 0c-10,24 -37,36 -61,26 -23,-9 -35,-36 -26,-60l87 34zm-98 70l0 93 -45 -58 1 -5 1 -2 1 -3 2 -3 1 -3 1 -4 2 -4 2 -5 2 -4 2 -5 2 -6 2 -5 3 -6 2 -6 2 -6 3 -5 2 -6 3 -6 2 -6 2 -6 3 -5 2 -5 2 -5 2 -5 2 -5 1 -4 2 -3 1 -4 1 -2 1 -3 1 -1 0 -1 87 34 -1 2 -1 2 -1 2 -1 3 -1 3 -2 4 -2 4 -1 4 -2 5 -3 5 -2 6 -2 5 -2 6 -3 5 -2 6 -3 6 -2 6 -2 6 -3 5 -2 6 -2 5 -2 6 -2 5 -2 4 -2 4 -2 4 -1 4 -1 3 -1 2 -1 2 0 0 1 -2 -45 -58zm45 58c-6,24 -31,39 -56,33 -25,-6 -40,-31 -34,-56l90 23z"/>
   <path id="1" class="fil3" d="M614 1300l177 0c3,-10 22,-55 27,-70 35,-93 74,-187 110,-281 2,-6 4,-11 6,-17 4,-11 5,-7 -1,-16 -7,-10 -14,-19 -20,-29 -26,-35 -53,-75 -79,-110l-2 -3c0,-1 -1,-1 -1,-1l-55 131c-27,65 -53,134 -80,197 -10,22 -19,44 -28,66 -3,9 -52,126 -54,133z"/>
  </g>
  <path class="fil1" d="M649 1392l0 54 0 50 603 0c45,0 94,1 139,0l16 0 0 -154 -16 -1c-45,0 -92,1 -137,1l-605 0 0 50z"/>
  <path class="fil4" d="M766 647c57,82 117,162 174,244 5,7 9,13 14,20 7,10 5,12 5,30l0 279c0,20 -1,42 0,63l0 7 143 0 1 -7c0,-20 -1,-42 -1,-62l0 -296c0,-8 1,-9 5,-13l72 -102c20,-27 39,-54 58,-81l40 -56c25,-36 50,-72 76,-107 3,-4 36,-50 51,-71 2,-3 3,-5 5,-7 1,-2 2,-4 2,-4l-159 0c-3,0 -40,54 -45,60 -45,64 -114,167 -155,219 -13,17 -19,28 -33,11l-1 -1c-34,-41 -67,-106 -119,-167 -2,-1 -59,-80 -81,-111 -3,-6 -6,-10 -7,-11l-160 0c1,0 2,2 3,5 4,6 8,11 13,17 15,23 39,55 42,59 19,27 38,54 57,82z"/>
  <path class="fil4" d="M1056 948l-50 0 -47 0 0 272c0,20 -1,42 0,63l0 7 143 0 1 -7c0,-20 -1,-42 -1,-62l0 -273 -46 0z"/>
  <path class="fil2" d="M804 1450c0,7 -5,13 -16,18 -10,5 -22,7 -36,7l-9 0c-14,0 -27,-2 -37,-7 -10,-5 -15,-11 -15,-18l0 -19 35 0 0 15c0,9 7,14 21,14 15,0 22,-5 22,-14l0 -80 35 0 0 84zm191 -55l-35 0c0,-5 -1,-9 -3,-11 -3,-4 -10,-6 -19,-6 -9,0 -14,2 -18,5 -2,2 -3,5 -3,10 0,6 1,10 3,13 3,5 9,7 19,7 15,0 28,3 39,7 11,5 17,11 17,18l0 14c0,7 -5,13 -15,17 -11,5 -23,8 -37,8l-9 0c-14,0 -27,-3 -37,-8 -10,-5 -15,-10 -15,-17l0 -7 34 0c0,11 8,17 23,17 9,0 15,-2 18,-5 2,-2 3,-5 3,-10 0,-13 -7,-19 -22,-19 -15,0 -28,-2 -39,-7 -11,-5 -17,-11 -17,-17l0 -16c0,-7 5,-13 15,-17 10,-5 23,-8 37,-8l9 0c14,0 26,3 37,8 10,4 15,10 15,17l0 7zm188 55c0,7 -5,13 -16,18 -10,5 -22,7 -36,7l-9 0c-14,0 -27,-2 -37,-7 -10,-5 -15,-11 -15,-18l0 -62c0,-7 5,-13 15,-17 10,-5 23,-8 37,-8l9 0c14,0 26,3 36,8 11,4 16,10 16,17l0 62zm-35 -4l0 -54c0,-4 -1,-7 -3,-9 -2,-3 -8,-5 -16,-5 -16,0 -24,5 -24,14l0 54c0,9 7,14 22,14 14,0 21,-5 21,-14zm220 28l-37 0 -36 -59 0 59 -33 0 -1 -109 36 0 38 61 0 -61 33 0 0 109z"/>
  <path class="fil3" d="M900 647c10,12 19,24 28,36 16,22 30,43 43,63 12,18 23,35 34,50 -2,-4 0,-8 4,-18l1 -3c3,-9 18,-58 22,-61 2,2 23,65 27,77 0,2 0,4 -1,5 11,-13 22,-30 35,-48 14,-20 30,-42 45,-63 25,-36 49,-72 70,-100l-1 0 -43 61 -33 -79 -13 -31 -9 -21 -155 -1 -9 22 -2 4 -43 107z"/>
  <g>
   <path class="fil2" d="M978 865l-76 53 0 0 -6 -8 -5 -8 -5 -7 -6 -8 -5 -7 -5 -8 -6 -8 -5 -7 -6 -8 -5 -7 -5 -8 -6 -8 -5 -7 -6 -8 -5 -7 -6 -8 -5 -8 -6 -7 -5 -8 -6 -8 -5 -7 -5 -8 -6 -7 -5 -8 -6 -8 -5 -8 -6 -7 -5 -8 -6 -8 -5 -7 -5 -8 -6 -8 76 -53 6 8 5 8 5 7 6 8 5 7 5 8 6 8 5 7 6 8 5 7 5 8 6 7 5 8 6 8 5 7 6 8 5 7 6 8 5 8 5 7 6 8 5 8 6 7 5 8 6 8 5 7 6 8 5 8 6 7 5 8 5 8 6 8 0 0zm0 0c14,21 9,49 -12,64 -21,15 -50,10 -64,-11l76 -53zm14 19l-75 55 0 0 -1 -1 0 -1 -1 0 0 -1 -1 -1 0 0 -1 -1 0 -1 -1 0 0 -1 -1 -1 0 0 0 -1 -1 -1 0 0 -1 -1 0 -1 -1 0 0 -1 -1 -1 0 0 -1 -1 0 -1 -1 0 0 -1 -1 -1 0 0 0 -1 -1 0 0 -1 -1 -1 0 0 76 -53 0 0 1 1 0 0 1 1 0 1 0 0 1 1 0 0 1 1 0 1 1 0 0 1 0 0 1 1 0 1 1 0 0 1 1 0 0 1 0 1 1 0 0 1 1 0 0 1 1 1 0 0 0 1 1 1 0 0 1 1 0 0 1 1 0 0zm0 0c15,21 10,50 -10,65 -21,15 -50,10 -65,-10l75 -55zm14 57l-93 0 0 0 0 -2 0 -1 0 -2 0 -2 0 -1 0 -2 0 -1 0 -1 0 -1 0 -1 0 0 0 -1 0 0 0 0 0 0 0 1 0 1 0 1 1 1 0 1 0 1 0 1 1 2 0 1 1 1 0 1 1 0 0 1 0 0 0 0 0 0 0 0 75 -55 1 2 1 1 1 2 1 2 1 2 2 2 1 2 1 2 1 3 1 3 0 2 1 3 1 2 0 3 0 2 1 2 0 2 0 2 0 2 0 2 0 1 0 1 0 2 0 1 0 1 0 1 0 1 0 1 0 2 0 1 0 1 0 1 0 0zm0 0c0,26 -21,47 -47,47 -25,0 -46,-21 -46,-47l93 0zm-93 279l0 -279 93 0 0 279 0 0 -93 0zm93 0c0,26 -21,47 -47,47 -25,0 -46,-21 -46,-47l93 0zm-1 61l-92 4 0 -1 0 -2 0 -2 -1 -2 0 -2 0 -2 0 -2 0 -3 0 -2 0 -2 0 -2 0 -2 0 -2 0 -2 0 -2 0 -2 0 -2 0 -2 1 -2 0 -2 0 -2 0 -2 0 -2 0 -2 0 -2 0 -2 0 -2 0 -2 0 -1 0 -2 0 -2 0 -2 0 -2 93 0 0 2 0 2 -1 2 0 2 0 2 0 2 0 2 0 2 0 2 0 2 0 2 0 2 0 2 0 2 0 2 0 2 0 2 0 2 0 2 0 2 0 1 0 2 0 2 0 2 0 2 0 2 0 2 0 1 0 2 0 2 0 2 0 1 0 0zm0 0c1,26 -19,47 -45,48 -25,1 -47,-19 -47,-45l92 -3zm-92 11l0 -7 92 -4 1 7 -47 49 -46 -45zm93 -4c1,26 -19,48 -45,49 -25,1 -47,-19 -48,-45l93 -4zm96 49l-143 0 0 -93 143 0 47 47 -47 46zm0 -93c26,0 47,21 47,46 0,26 -21,47 -47,47l0 -93zm47 40l0 7 -93 -2 0 -7 93 1 0 1zm-93 -2c1,-26 22,-46 47,-46 26,1 46,22 46,48l-93 -2zm0 -61l93 0 0 0 0 2 0 2 0 2 0 1 0 2 0 2 0 2 0 2 0 2 0 2 0 2 0 2 0 2 0 1 0 2 0 2 0 2 0 2 0 2 0 2 0 2 0 2 0 2 0 2 0 2 0 2 0 2 0 2 0 2 0 2 0 2 0 2 -93 -1 0 -2 0 -1 0 -2 0 -2 0 -2 0 -2 0 -2 0 -1 0 -2 0 -2 0 -2 0 -2 0 -2 0 -2 0 -2 0 -2 0 -1 0 -2 0 -2 0 -2 0 -2 0 -2 0 -2 0 -2 0 -2 0 -2 0 -2 0 -2 0 -2 0 -2 0 -2 0 -2 0 0zm0 0c0,-25 21,-46 46,-46 26,0 47,21 47,46l-93 0zm93 -296l0 296 -93 0 0 -296 93 0 0 0zm-93 0c0,-26 21,-47 46,-47 26,0 47,21 47,47l-93 0zm13 -40l75 54 1 -1 -1 1 0 1 -1 0 0 1 0 0 0 0 0 0 0 0 0 0 0 0 0 -1 1 0 0 -1 1 -1 0 -1 1 -1 0 -1 1 -2 0 -1 0 -1 1 -1 0 -1 0 -1 0 -1 0 -1 0 -1 0 0 1 0 0 -1 0 0 0 0 0 1 -93 0 0 -1 0 -1 0 -2 0 -1 0 -2 0 -1 0 -2 0 -1 1 -2 0 -2 0 -2 1 -2 1 -2 0 -2 1 -2 1 -1 1 -2 0 -2 1 -1 1 -2 1 -1 1 -1 0 -1 1 -1 0 -1 1 0 0 -1 0 0 0 0 0 0 1 0 0 -1 0 0zm0 0c14,-21 43,-26 64,-11 21,14 26,43 12,64l-76 -53zm148 -48l-73 102 -75 -54 73 -102 75 54 0 0zm-75 -54c14,-21 43,-26 64,-11 21,15 26,44 11,65l-75 -54zm57 -81l76 53 0 1 -2 2 -2 3 -1 2 -2 3 -2 2 -2 3 -2 2 -2 3 -1 2 -2 3 -2 3 -2 2 -2 3 -1 2 -2 3 -2 2 -2 3 -2 2 -1 3 -2 2 -2 3 -2 2 -2 3 -1 2 -2 3 -2 2 -2 3 -2 2 -1 3 -2 2 -2 3 -2 3 -75 -54 1 -3 2 -2 2 -3 2 -2 2 -3 1 -2 2 -3 2 -3 2 -2 2 -3 2 -2 1 -3 2 -2 2 -3 2 -2 2 -3 1 -2 2 -3 2 -2 2 -3 2 -2 1 -3 2 -2 2 -3 2 -3 2 -2 1 -3 2 -2 2 -3 2 -2 2 -3 1 -2 0 0zm0 0c15,-21 44,-26 65,-11 21,15 26,44 11,65l-76 -54zm116 -2l-40 55 -76 -53 40 -56 76 54 0 0zm-76 -54c15,-21 44,-26 65,-11 20,15 25,44 11,65l-76 -54zm77 -108l75 55 0 0 -3 3 -2 4 -2 3 -3 3 -2 4 -3 3 -2 3 -2 3 -3 4 -2 3 -3 3 -2 4 -2 3 -3 3 -2 4 -2 3 -3 3 -2 4 -3 3 -2 3 -2 4 -3 3 -2 3 -2 4 -3 3 -2 3 -3 4 -2 3 -2 3 -3 4 -2 3 -2 4 -76 -54 2 -3 3 -4 2 -3 2 -3 3 -4 2 -3 3 -3 2 -4 2 -3 3 -4 2 -3 2 -3 3 -4 2 -3 3 -3 2 -4 2 -3 3 -3 2 -4 3 -3 2 -4 2 -3 3 -3 2 -4 3 -3 2 -3 3 -4 2 -3 2 -3 3 -4 2 -3 3 -4 0 0zm0 0c15,-20 44,-25 65,-10 20,15 25,44 10,65l-75 -55zm50 -69l76 52 0 0 -2 2 -1 3 -2 2 -2 3 -1 2 -2 3 -2 3 -2 2 -2 3 -2 3 -2 3 -2 3 -2 2 -2 3 -2 3 -2 3 -2 3 -2 2 -2 3 -2 2 -1 3 -2 2 -2 2 -1 2 -1 2 -2 2 -1 1 -1 2 -1 1 0 1 -1 1 0 0 -75 -55 0 0 1 -1 0 -1 1 -1 1 -1 1 -2 1 -1 2 -2 1 -2 2 -2 1 -3 2 -2 2 -2 2 -3 1 -3 2 -2 2 -3 2 -3 2 -2 2 -3 2 -3 2 -3 2 -3 2 -2 2 -3 2 -3 2 -2 2 -3 1 -2 2 -2 1 -2 2 -2 0 0zm0 0c14,-22 43,-27 64,-12 21,14 26,43 12,64l-76 -52zm4 -7l77 51 0 0 0 1 0 0 0 0 0 0 0 0 -1 1 0 0 0 0 0 0 0 1 0 0 -1 0 0 0 0 1 0 0 0 0 0 0 -1 1 0 0 0 0 0 0 0 1 0 0 -1 0 0 0 0 1 0 0 0 0 0 0 -1 1 0 0 0 0 -76 -52 0 -1 0 0 0 0 0 0 0 -1 1 0 0 0 0 0 0 -1 0 0 0 0 1 0 0 0 0 -1 0 0 0 0 0 0 0 0 0 -1 1 0 0 0 0 0 0 0 0 -1 0 0 0 0 0 0 1 0 0 0 0 0 0 -1 0 0 0 0zm0 0c14,-21 43,-27 64,-13 22,14 27,43 13,64l-77 -51zm41 68l0 -93 43 64 -1 2 0 1 0 0 -1 1 0 1 0 0 -1 1 0 0 0 0 0 1 0 0 -1 0 0 1 0 0 0 0 0 1 0 0 -1 0 0 0 0 0 0 1 0 0 0 0 0 0 -1 1 0 0 0 0 0 0 0 1 0 0 -1 0 0 0 -77 -51 0 0 0 0 0 0 0 0 0 0 0 0 0 -1 1 0 0 0 0 0 0 0 0 0 0 0 0 0 0 0 0 0 0 0 0 0 0 0 0 0 0 0 -1 0 0 1 0 0 0 0 0 0 0 1 0 0 -1 1 0 0 0 1 -1 1 43 64zm-43 -64c10,-24 37,-35 61,-25 23,10 35,37 25,60l-86 -35zm-116 -29l159 0 0 93 -159 0 -10 -92 10 -1zm0 93c-26,0 -47,-21 -47,-46 0,-26 21,-47 47,-47l0 93zm-163 261l-73 -57 0 0 1 -2 3 -3 4 -5 4 -7 5 -7 6 -8 6 -9 7 -10 8 -10 8 -11 8 -12 8 -12 9 -12 8 -12 9 -13 9 -12 9 -13 9 -12 8 -12 9 -12 8 -12 8 -11 7 -10 7 -9 6 -9 6 -8 5 -7 5 -7 3 -5 4 -4 3 -4 26 -16 20 91 24 -14 0 0 -2 3 -4 5 -4 5 -5 7 -5 8 -7 9 -7 9 -7 10 -7 11 -9 11 -8 12 -8 12 -9 13 -9 12 -9 13 -9 12 -9 13 -8 12 -9 12 -8 11 -8 11 -7 11 -7 10 -6 9 -6 8 -6 7 -4 7 -4 5 -3 4 -3 4 0 0zm0 0c-16,20 -45,24 -65,8 -20,-16 -24,-45 -8,-65l73 57zm-106 12l71 -59 0 0 1 0 0 0 -1 0 0 0 -1 -1 -2 -1 -2 -2 -3 -1 -3 -1 -5 -1 -4 -1 -5 0 -5 1 -4 1 -4 1 -2 2 -3 1 -1 1 -2 1 0 1 -1 0 0 0 0 0 1 -1 0 0 1 -1 1 -1 1 -1 1 -2 1 -1 1 -2 2 -2 73 57 -1 1 -1 2 -1 1 -2 2 -1 2 -1 1 -2 2 -1 2 -2 2 -2 2 -2 2 -2 2 -2 3 -3 2 -4 3 -4 2 -5 2 -5 2 -7 2 -6 1 -7 0 -6 -1 -7 -2 -5 -2 -5 -2 -4 -3 -4 -2 -4 -3 -3 -3 -2 -2 -3 -3 -2 -3 0 0zm0 0c-17,-20 -14,-49 6,-65 20,-16 49,-14 65,6l-71 59zm71 -59l0 0 -71 59 0 0 0 0 71 -59zm-71 59c-17,-20 -14,-49 6,-65 20,-17 49,-14 65,6l-71 59zm-203 -282l77 -53 0 0 5 8 6 9 6 8 5 8 6 9 6 9 7 9 6 9 6 9 6 9 7 9 6 10 7 9 6 9 7 10 6 9 7 9 6 9 7 9 6 10 7 8 6 9 6 9 7 9 6 8 6 8 6 8 6 8 6 8 6 7 6 7 5 7 -71 59 -6 -7 -7 -8 -6 -8 -6 -8 -6 -8 -7 -9 -6 -8 -7 -9 -6 -9 -7 -9 -7 -9 -6 -9 -7 -10 -7 -9 -6 -9 -7 -10 -6 -9 -7 -10 -7 -9 -6 -10 -7 -9 -6 -9 -6 -9 -7 -10 -6 -9 -6 -9 -6 -8 -6 -9 -6 -8 -6 -9 -5 -8 -6 -8 0 0zm0 0c-14,-21 -9,-50 12,-64 21,-15 50,-10 65,11l-77 53zm31 9l0 -93 40 23 0 0 -1 0 0 0 0 0 0 0 1 0 0 0 0 0 0 0 0 0 0 0 0 1 0 0 1 0 0 1 0 0 0 0 0 0 1 1 0 0 0 1 0 0 1 0 0 1 0 0 1 1 0 0 0 0 0 1 1 0 0 1 1 0 -77 53 0 0 0 -1 -1 0 0 -1 0 0 -1 -1 0 0 0 -1 -1 0 0 -1 0 0 -1 0 0 -1 0 0 -1 -1 0 0 0 -1 0 0 -1 0 0 -1 0 0 0 0 -1 -1 0 0 0 -1 0 0 -1 0 0 -1 0 0 0 0 -1 -1 0 0 40 22zm-40 -22c-13,-22 -6,-51 16,-64 22,-13 50,-6 64,16l-80 48zm-120 -71l160 0 0 93 -160 0 -42 -28 42 -65zm0 93c-25,0 -46,-21 -46,-46 0,-26 21,-47 46,-47l0 93zm42 -67l-77 51 0 0 -1 0 0 -1 0 0 0 0 0 0 -1 -1 0 0 0 0 0 0 0 -1 0 0 -1 0 0 -1 0 0 0 0 0 0 -1 -1 0 0 0 0 0 -1 0 0 0 0 -1 -1 0 0 0 -1 0 0 -1 0 0 -1 0 -1 -1 -1 0 0 0 -1 85 -36 0 -1 -1 -1 0 0 0 -1 0 0 -1 -1 0 0 0 0 0 0 0 0 0 -1 0 0 0 0 0 0 0 0 0 0 0 0 0 0 0 0 0 0 0 1 0 0 0 0 0 0 0 0 0 0 0 0 1 0 0 1 0 0 0 0 0 0 0 0zm0 0c14,21 8,50 -13,64 -22,14 -50,8 -64,-13l77 -51zm11 17l-75 53 0 0 -1 -1 0 0 -1 -1 0 0 0 -1 -1 0 0 -1 -1 0 0 -1 0 -1 -1 0 0 -1 -1 0 0 -1 0 -1 -1 0 0 -1 -1 0 0 -1 0 -1 -1 0 0 -1 -1 0 0 -1 -1 -1 0 0 0 -1 -1 0 0 -1 -1 -1 0 0 0 -1 77 -51 0 1 1 0 0 1 0 0 1 1 0 0 0 1 1 0 0 1 0 0 1 1 0 0 0 1 1 0 0 1 0 0 1 1 0 0 1 1 0 0 0 1 1 0 0 1 0 0 1 1 0 0 1 1 0 1 0 0 1 1 0 0 0 1 0 0zm0 0c15,21 10,50 -11,64 -21,15 -50,10 -64,-11l75 -53zm42 59l-75 53 0 0 0 0 -1 -1 0 0 -1 -1 -1 -1 -1 -2 -1 -1 -1 -1 -1 -2 -1 -1 -1 -2 -1 -2 -2 -2 -1 -2 -2 -2 -1 -2 -2 -2 -1 -3 -2 -2 -2 -2 -1 -2 -2 -3 -2 -2 -1 -2 -2 -3 -2 -2 -1 -3 -2 -2 -2 -2 -1 -3 -2 -2 -1 -2 75 -53 2 2 1 2 2 2 2 3 1 2 2 2 2 2 1 3 2 2 2 2 1 3 2 2 1 2 2 3 2 2 1 2 2 2 1 2 2 2 1 2 1 2 1 1 2 2 1 2 1 1 1 1 1 2 0 1 1 1 1 0 0 1 0 1 0 0zm0 0c15,20 10,49 -10,64 -21,15 -50,10 -65,-11l75 -53zm58 81l-76 53 0 0 -2 -2 -1 -3 -2 -3 -2 -2 -2 -3 -1 -2 -2 -3 -2 -2 -2 -3 -1 -2 -2 -3 -2 -2 -2 -3 -2 -2 -1 -3 -2 -2 -2 -3 -2 -2 -2 -3 -1 -2 -2 -3 -2 -2 -2 -3 -2 -2 -1 -3 -2 -2 -2 -3 -2 -2 -2 -3 -1 -3 -2 -2 -2 -3 75 -53 2 2 2 3 2 2 2 3 1 2 2 3 2 2 2 3 2 2 1 3 2 2 2 3 2 2 2 3 1 2 2 3 2 2 2 3 2 3 2 2 1 3 2 2 2 3 2 2 2 3 2 3 1 2 2 3 2 2 2 3 2 3 1 2 0 0zm0 0c15,21 10,50 -11,65 -21,14 -50,9 -65,-12l76 -53z"/>
   <path id="1" class="fil1" d="M766 647c57,82 117,162 174,244 5,7 9,13 14,20 7,10 5,12 5,30l0 279c0,20 -1,42 0,63l0 7 143 0 1 -7c0,-20 -1,-42 -1,-62l0 -296c0,-8 1,-9 5,-13l72 -102c20,-27 39,-54 58,-81l40 -56c25,-36 50,-72 76,-107 3,-4 36,-50 51,-71 2,-3 3,-5 5,-7 1,-2 2,-4 2,-4l-159 0c-4,0 -183,257 -200,279 -13,17 -19,28 -33,11l-1 -1c-61,-74 -141,-195 -200,-278 -3,-6 -6,-10 -7,-11l-160 0c1,0 2,2 3,5 4,6 8,11 13,17 15,23 39,55 42,59 19,27 38,54 57,82z"/>
  </g>
  <path class="fil5" d="M1579 1659c-2,2 -3,3 -5,5 -2,2 -4,3 -6,5 -3,3 -7,6 -10,9 -7,6 -13,12 -20,17 -7,5 -13,10 -20,15 -3,2 -6,4 -9,7 -3,2 -7,4 -10,6 -13,8 -25,16 -38,23 -7,4 -13,8 -20,12 -7,4 -14,7 -21,11 6,-4 13,-8 19,-12 7,-4 13,-8 19,-12 6,-4 13,-7 19,-11 6,-4 12,-9 19,-13 25,-16 52,-35 83,-62zm-1134 8c70,57 154,113 241,150 -44,-16 -86,-38 -126,-63l-15 -9c-6,-4 -10,-7 -15,-10 -10,-7 -20,-14 -29,-21 -10,-8 -19,-15 -29,-23 -9,-8 -18,-16 -27,-24zm923 154c-44,19 -91,33 -137,45 -47,11 -95,19 -143,22 -48,3 -96,3 -144,-2 -48,-5 -95,-14 -141,-28 48,11 95,19 143,23 48,5 96,5 144,2 48,-3 95,-10 142,-20l17 -4c6,-1 12,-3 17,-4l18 -5c5,-1 11,-3 17,-5l34 -11 33 -13zm337 -1351l16 21 15 21 8 11c2,4 5,7 7,11l14 22c5,8 9,15 13,23 4,8 9,15 13,23 8,15 16,31 23,47 3,8 7,16 10,24l10 24 4 13 5 12 8 25c2,8 5,17 7,25 2,8 5,17 7,25 4,17 8,34 11,52 10,57 15,104 18,131 4,27 8,34 12,12 1,-8 2,-18 3,-30 1,-12 0,-26 0,-41 0,-7 -1,-15 -2,-24 0,-8 -1,-17 -2,-26 -1,-9 -3,-18 -4,-28 -1,-5 -2,-10 -3,-15 -1,-5 -2,-10 -3,-15 -23,-112 -69,-219 -131,-313 -4,-5 -8,-11 -12,-16 -4,-6 -7,-11 -11,-17 -8,-10 -15,-20 -22,-29 -13,-17 -21,-30 -18,-31 2,-1 12,8 26,23 13,15 29,34 44,55 11,15 21,31 31,45 5,7 9,14 13,20 5,7 9,13 12,19 14,23 24,37 26,35 3,-3 -1,-16 -10,-39 -6,-11 -12,-25 -21,-41 -4,-7 -9,-15 -14,-24 -3,-4 -6,-9 -8,-14 -3,-4 -7,-9 -10,-13 -5,-8 -11,-17 -17,-26 -7,-9 -14,-18 -20,-26 -6,-8 -12,-15 -16,-20 -4,-4 -5,-7 -4,-6 14,9 5,-7 -3,-23 -8,-15 -16,-29 3,-16 8,6 14,10 19,13 4,3 7,5 9,5 3,-1 0,-7 -9,-20 -5,-6 -12,-14 -20,-24 -4,-5 -9,-10 -14,-16 -5,-5 -11,-11 -18,-17 -12,-13 -28,-26 -45,-42 -9,-7 -18,-15 -28,-23 -10,-8 -21,-16 -33,-24 -97,-69 -207,-119 -323,-149 -77,-19 -156,-29 -235,-29 -80,-1 -159,9 -236,27 -154,38 -299,114 -416,220 -8,6 -15,13 -22,20 -7,7 -14,14 -21,21l-21 21 -10 11 -10 11 -19 23c-6,7 -12,15 -18,23 -13,15 -24,32 -35,48 -3,4 -6,8 -8,12l-8 13c-6,8 -11,16 -16,25l-15 26c-2,4 -5,8 -7,12l-7 14 -13 26 -12 27c-9,18 -15,37 -23,55 -27,74 -45,152 -53,230 -2,10 -2,20 -3,30l-2 29 -1 30c0,10 0,19 0,29l1 30c0,5 0,10 1,14l1 15 2 30c1,9 3,19 4,29 18,136 66,268 139,384 73,116 171,216 285,292 114,76 244,128 380,150 67,12 136,16 205,13 68,-3 137,-13 204,-30l34 -10c11,-3 22,-7 33,-11 6,-1 11,-3 17,-5l16 -6 17 -7c5,-2 11,-4 16,-7l32 -14c11,-5 21,-10 32,-15 5,-3 11,-6 16,-9l15 -8 15 -9c6,-3 11,-6 16,-9 58,-35 106,-76 118,-94 6,-9 17,-20 30,-35 6,-7 13,-15 21,-23 7,-9 15,-18 23,-27 34,-39 71,-88 104,-142 28,-45 53,-95 72,-143 4,-10 8,-20 11,-29 4,-9 6,-18 9,-27 2,-8 5,-16 7,-23 2,-8 3,-15 5,-22 6,-26 8,-44 8,-53 1,-10 -1,-10 -5,-2 -5,8 -10,26 -21,53 -7,20 -15,36 -21,49 -3,7 -6,12 -8,17 -3,4 -5,8 -7,10 -4,5 -6,5 -6,0 0,-2 0,-6 1,-11 1,-3 1,-6 2,-9 1,-4 2,-7 2,-12 6,-29 6,-40 -1,-35 -2,2 -5,8 -9,16 -2,4 -4,9 -6,14 -2,5 -4,10 -7,15 -5,10 -10,20 -14,27 -4,8 -7,13 -9,14 -1,0 0,-4 2,-11 1,-7 4,-16 7,-26 1,-5 3,-10 4,-15 1,-5 2,-9 3,-13 2,-9 2,-15 2,-17 -2,-4 -5,-1 -9,7 -2,3 -5,8 -8,14 -2,6 -6,13 -9,20 -4,7 -8,15 -11,23 -5,8 -9,17 -14,25 -2,4 -4,9 -6,13 -3,4 -5,8 -8,13 -5,8 -9,16 -14,24 -9,13 -15,23 -20,28 -4,6 -6,8 -6,6 0,-1 1,-2 2,-5 1,-2 2,-6 5,-10 2,-4 4,-10 7,-16 2,-3 4,-6 5,-10 2,-3 4,-7 6,-11 28,-58 54,-124 68,-188 3,-14 6,-26 8,-37 1,-12 2,-21 3,-30 1,-8 2,-15 2,-21 0,-6 -1,-10 -1,-13 -1,-6 -3,-5 -5,1 -3,6 -6,19 -11,38 -2,8 -4,16 -7,25 -2,9 -5,18 -8,27 -1,4 -2,9 -4,13l-5 14c-3,8 -6,17 -9,26 3,-12 5,-24 8,-36 2,-6 3,-13 4,-19 2,-6 3,-12 4,-18 1,-3 2,-6 2,-9 1,-3 1,-6 2,-9 1,-6 1,-11 2,-17 1,-5 2,-10 3,-15 0,-5 0,-10 1,-14 0,-8 1,-15 1,-22 1,-7 0,-15 1,-22 0,-7 0,-13 0,-20 0,-6 -1,-12 -1,-17 -2,-22 -4,-34 -8,-27 -2,4 -4,12 -5,23 -1,5 -1,11 -2,18 -1,6 -2,13 -3,21 -1,15 -4,32 -7,49 -1,8 -3,17 -4,26l-2 13c-1,4 -2,9 -3,13 -14,66 -35,122 -57,166 -5,11 -12,21 -17,31 -3,5 -6,9 -9,14 -3,4 -6,8 -9,13 -11,16 -22,29 -32,40 -1,1 -3,3 -4,5 -2,2 -4,4 -6,7 -5,5 -10,11 -15,18 -6,8 -12,15 -19,22 -3,4 -6,8 -9,11 -3,4 -6,7 -9,10 -5,6 -10,12 -15,17 -5,5 -10,10 -14,15 -5,4 -9,8 -13,11 -4,4 -7,7 -10,9 -13,10 -19,13 -18,8 0,-3 -3,-2 -8,0 -5,3 -13,9 -22,16 -5,4 -11,7 -17,12 -5,4 -12,9 -18,13 -14,10 -29,20 -45,30 -41,27 -85,49 -130,67 -100,41 -210,59 -319,53 -108,-5 -215,-35 -312,-86 -96,-51 -181,-123 -248,-210 -66,-87 -113,-188 -136,-295 -7,-35 -13,-70 -15,-105 -2,-18 -2,-36 -3,-53 0,-9 1,-18 1,-27l0 -13c0,-5 1,-9 1,-14l2 -26 3 -27 2 -13 2 -13c2,-9 3,-17 5,-26 4,-17 7,-35 13,-52l3 -12 2 -7 2 -6 9 -25c3,-9 6,-17 9,-25l5 -12 6 -12c3,-8 7,-16 11,-24l12 -24c4,-8 9,-15 13,-23 4,-8 9,-16 14,-23l14 -22c5,-7 10,-14 15,-22 22,-28 44,-55 69,-80l9 -9c3,-3 7,-6 10,-9 7,-6 13,-12 19,-18 14,-11 27,-23 41,-33 15,-12 30,-22 45,-33 16,-9 31,-20 46,-29 15,-9 31,-17 46,-26 7,-3 15,-7 22,-11 4,-2 8,-4 11,-6 4,-1 8,-3 11,-5 35,-17 74,-30 114,-40 41,-9 83,-16 128,-17 35,-1 71,-1 106,2l13 1c4,1 9,2 13,2l26 4 26 5 13 2 13 3c34,8 68,19 101,31l24 10c8,4 16,8 24,11l12 6 12 6c7,4 15,8 23,12 69,40 109,69 133,81 11,5 13,4 6,-5 -3,-4 -8,-10 -16,-17 -3,-4 -8,-8 -13,-12 -2,-2 -4,-5 -7,-7 -3,-2 -6,-5 -9,-7 -10,-8 -20,-16 -30,-24 -10,-7 -20,-15 -32,-22 -7,-4 -14,-8 -21,-12 -7,-4 -14,-8 -20,-12 -14,-7 -27,-13 -37,-19 -11,-5 -19,-9 -22,-12 -4,-2 -3,-4 4,-3 4,1 8,1 13,3 4,1 10,3 15,5 6,2 12,5 18,7 6,3 13,6 20,10 27,13 56,32 81,49 16,11 32,23 47,34 14,11 28,24 42,36 7,6 14,13 21,19 3,3 6,6 10,10l9 10c26,26 50,55 72,85 6,7 11,15 16,22 5,8 10,16 15,23 6,8 10,16 15,24l7 11c2,4 4,8 7,12 4,8 8,16 12,24 3,4 5,8 6,12 2,4 4,8 6,12 8,16 15,32 22,48 16,38 29,80 31,68 1,-11 -10,-59 -29,-102 -61,-143 -159,-266 -280,-354l-11 -8 -5 -4 -6 -4c-8,-5 -16,-11 -24,-16 -7,-5 -15,-9 -23,-14l-12 -7c-4,-3 -8,-5 -12,-7 -9,-4 -17,-9 -25,-13 -8,-4 -17,-8 -25,-12 -4,-2 -8,-4 -13,-6l-12 -5c-9,-3 -17,-7 -26,-10 -69,-26 -140,-44 -213,-50 181,10 364,88 504,219 141,131 236,315 261,513 -1,-44 -8,-95 -22,-146 -14,-52 -35,-105 -60,-154 -25,-50 -55,-95 -84,-135 -4,-5 -8,-10 -11,-15 -4,-4 -8,-9 -11,-14 -8,-9 -14,-18 -22,-26 -6,-8 -13,-16 -19,-24 -7,-7 -13,-15 -19,-21 37,29 64,60 89,92z"/>
  <path class="fil6" d="M765 306c6,-3 12,-6 19,-8 7,-3 14,-5 20,-7 11,-4 19,-5 13,-1 -7,3 -15,6 -24,9 -9,3 -18,7 -27,9 -9,3 -11,2 -1,-2zm-449 331c-5,6 -10,15 -15,25 -2,5 -5,11 -7,16 -3,6 -5,11 -7,17 -3,6 -5,12 -8,18 -2,6 -4,13 -7,19 -4,12 -9,25 -14,36 2,-9 4,-18 7,-26 3,-8 5,-16 7,-23 3,-7 6,-14 8,-20 3,-6 5,-12 7,-17 5,-11 10,-19 15,-27 5,-7 9,-13 14,-18 3,-10 6,-18 9,-26 3,-8 6,-15 9,-22 3,-6 6,-13 9,-19 4,-7 8,-13 12,-20 8,-13 19,-27 33,-45 8,-9 16,-19 26,-29 5,-6 10,-11 16,-17 5,-6 11,-12 18,-18 33,-42 75,-81 122,-114 47,-34 99,-62 152,-84 92,-38 191,-58 289,-60l19 0c6,0 12,0 18,0 12,1 25,1 37,2 12,1 24,2 36,4 12,1 24,3 36,5 48,8 96,21 141,38 89,33 174,82 248,145 75,63 138,140 185,225 49,89 82,189 95,292 1,6 1,11 2,17 1,5 1,11 2,16 1,10 2,20 4,28 1,17 4,30 7,37 3,6 6,3 8,-7 1,-5 2,-11 3,-19 0,-4 1,-8 1,-13 0,-5 0,-9 0,-15 0,-47 -5,-97 -19,-154l-8 -32 -10 -31 -3 -8 -3 -8 -5 -16c-2,-5 -4,-10 -6,-15l-7 -16c-17,-40 -38,-80 -62,-118 -48,-75 -108,-142 -178,-198 -35,-28 -72,-54 -111,-76 -39,-22 -80,-42 -122,-57 -42,-16 -85,-28 -129,-37 -44,-9 -89,-15 -134,-17l-14 0 -15 0c-10,0 -20,-1 -29,0 -20,1 -40,1 -60,3 -39,4 -78,11 -116,21 -133,37 -257,106 -357,199 -50,47 -95,100 -132,157l-14 22 -13 22 -7 12c-2,3 -4,7 -6,11l-12 23c-4,8 -7,15 -11,23 -3,8 -7,16 -10,24 -6,16 -13,32 -18,48 -23,65 -38,133 -44,201 -6,69 -5,138 6,206 10,69 29,136 56,200 27,63 61,124 103,179 57,76 126,142 205,195 78,53 165,93 257,117 92,24 187,33 282,26 94,-7 187,-31 274,-69 128,-57 244,-148 325,-258 21,-27 38,-55 55,-84 4,-7 8,-14 11,-21 2,-4 4,-8 6,-11 2,-4 4,-7 5,-11 4,-7 7,-15 10,-22 2,-4 4,-7 5,-11 2,-4 3,-7 4,-11 24,-59 38,-118 44,-173 0,-4 1,-9 2,-13 0,-5 1,-10 2,-16 0,-5 1,-10 2,-16 0,-3 0,-5 1,-8 0,-3 0,-5 0,-8 3,-29 5,-62 4,-85 -2,-24 -5,-38 -10,-30 -2,5 -4,12 -6,23 -1,5 -1,11 -2,17 -1,6 -1,13 -2,20 -1,7 -1,15 -2,22 -1,8 -2,15 -3,23 -1,15 -4,30 -6,44 -24,128 -81,249 -162,350 -5,6 -11,12 -16,18 -5,6 -10,12 -16,18l-17 18 -8 9 -9 8 -17 17c-6,5 -13,10 -19,16 -12,10 -25,20 -38,30l-4 4 -5 3 -10 7c-7,5 -13,10 -20,14l-21 13c-3,2 -6,5 -10,7l-10 6 -21 12 -22 11c-14,7 -29,13 -44,20 -60,25 -122,43 -186,53 -8,2 -16,3 -24,4l-24 3 -24 1c-8,1 -16,2 -24,2 -16,0 -33,1 -49,0l-24 -1 -24 -2c-16,-1 -32,-3 -48,-5 -8,-1 -16,-3 -24,-4l-24 -5c-31,-7 -62,-15 -93,-25 -7,-3 -15,-5 -23,-8l-22 -9c-4,-2 -8,-3 -11,-5l-11 -5 -22 -10c-29,-14 -57,-30 -84,-47 -6,-4 -11,-7 -16,-10 -6,-4 -11,-8 -16,-12 -6,-4 -12,-7 -17,-12 -6,-4 -11,-9 -17,-13 -23,-18 -45,-41 -65,-67 48,46 97,83 146,114 50,30 99,52 148,70 160,58 337,59 496,8 160,-52 301,-156 397,-292 33,-46 58,-94 76,-140 17,-46 27,-90 30,-128 2,-22 -1,-28 -8,-15 -2,4 -4,8 -6,14 -2,5 -4,10 -6,17 -3,6 -5,13 -7,20 -2,7 -5,15 -7,22 -12,34 -25,67 -42,98 -16,32 -34,63 -54,92l-8 11 -8 10c-6,7 -11,14 -16,21l-18 21c-2,3 -5,6 -8,10l-10 9 -9 10c-3,3 -6,6 -9,10 -6,6 -13,12 -19,18l-20 18 -5 4 -5 5 -10 8c-107,87 -240,143 -378,159 -35,3 -70,6 -104,4 -18,0 -35,-2 -52,-3 -9,0 -18,-2 -26,-3l-13 -1c-5,-1 -9,-2 -13,-3l-26 -4 -25 -6c-5,-1 -9,-2 -13,-3l-13 -3c-8,-3 -16,-5 -25,-8 -16,-5 -33,-11 -49,-17 -16,-6 -32,-14 -48,-21 -92,-44 -175,-107 -242,-184 -67,-76 -118,-167 -149,-264 -31,-97 -42,-200 -32,-301 9,-101 39,-200 88,-289 28,-51 63,-98 103,-141l4 -4 3 -4 8 -8c6,-5 11,-11 16,-16 6,-5 11,-10 17,-14l8 -8 8 -7c6,-5 12,-9 18,-14 6,-5 12,-9 18,-13 12,-9 25,-17 37,-25 -6,6 -13,11 -19,16 -6,5 -11,10 -16,15 -6,4 -11,8 -16,12 -5,5 -10,9 -15,13 -47,40 -88,87 -124,138 -2,3 -4,6 -6,9l-7 10 -6 10c-2,3 -4,6 -6,10 -8,13 -16,26 -23,40 -14,28 -26,57 -37,86 -21,58 -35,119 -40,181 -5,61 -3,124 7,184 17,99 54,195 108,279 54,85 125,159 208,215 34,22 70,42 107,58 37,17 76,30 115,39 38,10 78,16 118,19 39,3 79,2 118,-2 39,-3 78,-10 116,-20 38,-10 75,-23 111,-39 71,-32 137,-75 195,-128 44,-39 78,-84 106,-128 27,-45 46,-90 59,-133 2,-6 3,-12 4,-17 1,-5 1,-10 2,-13 0,-4 0,-7 0,-9 -1,-2 -2,-4 -2,-4 -2,-2 -5,0 -8,4 -3,5 -7,12 -11,23 -20,48 -40,75 -56,95 -9,10 -16,17 -24,24 -3,3 -7,6 -11,9l-5 4c-2,2 -4,3 -6,4 -5,3 -10,8 -15,14 -6,6 -12,13 -19,21 -13,15 -28,32 -42,46 -53,52 -116,95 -185,125 -68,30 -143,48 -219,50 -40,1 -81,0 -120,-4 -26,-3 -52,-8 -77,-14 -7,-1 -13,-3 -19,-5 -7,-2 -13,-3 -19,-5 -12,-4 -25,-8 -37,-13 -49,-18 -96,-42 -139,-73 -43,-29 -83,-64 -117,-104l-13 -15 -12 -16c-9,-10 -16,-21 -23,-31 -4,-6 -8,-12 -11,-17 -4,-6 -7,-11 -11,-17 -6,-11 -13,-22 -19,-34 -36,-72 -59,-151 -68,-230 -11,-86 -4,-175 20,-259 24,-83 66,-162 123,-229 89,-106 212,-183 346,-215 44,-11 90,-17 132,-17 81,0 166,13 244,41 79,28 152,73 208,129 2,3 4,5 7,7 2,2 4,5 7,7 5,5 10,9 14,13 8,8 16,15 23,23 8,7 15,15 21,21 13,14 24,23 30,26 4,1 5,0 5,-4 -1,-3 -2,-8 -6,-14 -3,-6 -8,-14 -13,-22 -6,-8 -12,-16 -18,-25 -4,-4 -8,-9 -12,-14 -4,-5 -8,-10 -12,-14 -25,-27 -52,-50 -81,-72 -28,-22 -59,-42 -91,-58 -32,-17 -66,-31 -101,-43 -35,-11 -71,-19 -108,-24l-13 -2c-4,0 -8,-1 -12,-1l-26 -2c-8,-1 -17,-1 -26,-1l-12 -1 -13 0c-35,0 -69,4 -103,10 -34,5 -67,13 -99,24l-13 4 -6 2 -6 2 -24 10c-15,7 -31,13 -46,21 -123,62 -227,161 -295,280 -45,78 -74,165 -84,255 -11,90 -3,183 23,270 25,88 69,171 127,241 58,71 131,130 212,172 10,4 21,10 30,15 10,4 18,9 21,13 -21,-5 -48,-17 -72,-32 -75,-42 -142,-99 -197,-165 -55,-67 -97,-144 -124,-226 -26,-80 -39,-164 -35,-249 3,-84 21,-168 54,-245 33,-78 80,-150 138,-212 59,-61 128,-112 204,-149 83,-40 174,-63 266,-68 92,-5 185,8 271,38 86,31 165,78 231,139 66,61 119,134 155,213 7,15 13,30 19,45 4,8 6,15 9,23 2,4 3,7 5,11 1,4 3,8 4,12 2,6 4,12 6,17 2,5 3,10 5,14 3,8 5,14 7,18 4,6 5,1 3,-19 -1,-6 -2,-11 -2,-16 -1,-5 -2,-8 -2,-11 0,-6 1,-8 2,-7 2,1 5,5 9,12 2,4 4,8 6,13 2,5 5,11 7,18 3,6 5,11 7,14 2,4 4,7 6,9 3,3 6,2 9,-3 2,-4 3,-13 3,-24 0,-6 -1,-13 -2,-20 0,-4 -1,-7 -2,-11 0,-4 -2,-8 -3,-12 -2,-10 -5,-20 -7,-29 -3,-10 -6,-19 -9,-29 -7,-18 -14,-37 -22,-55 -15,-36 -33,-72 -55,-105 -21,-35 -46,-68 -74,-99 -29,-32 -62,-62 -99,-89 -79,-59 -169,-103 -260,-130 -87,-27 -182,-36 -277,-28 -95,8 -192,35 -281,81 -42,21 -81,46 -119,73 -9,7 -18,14 -27,21 -9,7 -18,14 -27,21 -8,8 -17,16 -25,23 -9,8 -16,16 -25,24 -51,59 -97,124 -131,196z"/>
  <rect class="fil0" x="941" y="1009" width="169.465" height="46.7771"/>
 </g>
</svg>
